<svg width="6" height="8" viewBox="0 0 6 8" fill="none" xmlns="http://www.w3.org/2000/svg">
<path d="M5.4707 8H0.69043V7.18457L3.05859 4.60156C3.40039 4.2207 3.6429 3.90332 3.78613 3.64941C3.93262 3.39225 4.00586 3.13509 4.00586 2.87793C4.00586 2.53939 3.90983 2.26595 3.71777 2.05762C3.52897 1.84928 3.27344 1.74512 2.95117 1.74512C2.56706 1.74512 2.26921 1.8623 2.05762 2.09668C1.84603 2.33105 1.74023 2.65169 1.74023 3.05859H0.553711C0.553711 2.62565 0.651367 2.23665 0.84668 1.8916C1.04525 1.54329 1.32682 1.27311 1.69141 1.08105C2.05924 0.888997 2.48242 0.792969 2.96094 0.792969C3.65104 0.792969 4.19466 0.967122 4.5918 1.31543C4.99219 1.66048 5.19238 2.139 5.19238 2.75098C5.19238 3.10579 5.09147 3.47852 4.88965 3.86914C4.69108 4.25651 4.36393 4.69759 3.9082 5.19238L2.16992 7.05273H5.4707V8Z" fill="white"/>
</svg>
